<svg xmlns="http://www.w3.org/2000/svg" viewBox="0 0 1068.15 234.63"><defs><style>.a{fill:#fff;}.b{fill:#e87331;}</style></defs><title>StoreFeeder Logo</title><path class="a" d="M86.4,106.43c0-7-4.24-11.66-13.14-14.2C64.78,89.68,55,87.14,44.64,84.38,16.44,77.17,2.45,64,2.45,44.95,3.08,14.63,21.1-.21,56.72,0c33.92,0,51.52,14.84,53.21,44.73H93.4c-6.15,0-10.39-3-13.14-8.48C75.38,28,66.69,24,54.18,24c-15.26.21-22.9,5.94-23.53,17,0,9.12,9.12,15.69,28,19.93A334.2,334.2,0,0,1,93,70.81q24.17,8.27,22.9,35.62c-1.7,28.2-20.78,42.19-57.24,42.19-38.16,0-57.45-15.9-58.3-47.28H28.95c1.06,15.26,10.81,22.9,29.68,22.9S86.61,118.3,86.4,106.43Z"/><path class="a" d="M156.15,54.49h-3v62.12c0,4.66,2.76,7.21,8.27,7.21h8.69v21.41a154.9,154.9,0,0,1-29.68-.21c-10.6-1.06-15.69-7.63-15.48-20.14V2.33h14.63c7.42,0,13.57,6.78,13.57,14.2V34.35h17V40.5A13.72,13.72,0,0,1,156.15,54.49Z"/><path class="a" d="M272.54,91c0,38.58-17.17,58.09-51.09,58.09S170.56,129.54,170.56,91c0-39,17-58.3,50.88-58.3S272.54,51.94,272.54,91Zm-73.35,0c.21,21.84,7.63,32.86,22,32.86s21.62-11.45,21.84-33.71c0-21.84-7.21-32.65-21.62-32.65C206.6,57.46,199.18,68.69,199.18,91Z"/><path class="a" d="M280.8,88.62c.85-36.25,20.14-54.27,57.67-54.27h4V63.6H333c-15.69,0-23.53,8.27-23.53,24.59v58.3H280.8Z"/><path class="a" d="M399.31,149c-33.92-1.06-50.88-20.78-50.88-58.94s17.17-57.24,51.31-57.45c35.62,0,52.37,21.84,50.25,65.72H377.47c1.06,17.17,8.48,25.86,22.26,25.86,6.57,0,12.72-2.76,18.23-8.06a12.35,12.35,0,0,1,9.54-4h20.78C442.13,135.9,426.87,149,399.31,149ZM377.89,78.23h42.19c-1.7-14.84-8.69-22.47-20.78-22.47S380,63.39,377.89,78.23Z"/><path class="b" d="M545.8,82.68H504.88V146.5h-29V17.81c0-8.27,6.57-15.48,14.84-15.48h89.47v25H504.88v31h56.39v9.54C561.27,76.11,554.06,82.68,545.8,82.68Z"/><path class="b" d="M617.87,149C584,148,567,128.27,567,90.1s17.17-57.24,51.31-57.45c35.62,0,52.37,21.84,50.25,65.72H596c1.06,17.17,8.48,25.86,22.26,25.86,6.57,0,12.72-2.76,18.23-8.06a12.35,12.35,0,0,1,9.54-4h20.78C660.7,135.9,645.43,149,617.87,149ZM596.46,78.23h42.19C637,63.39,630,55.76,617.87,55.76S598.58,63.39,596.46,78.23Z"/><path class="b" d="M726.41,149c-33.92-1.06-50.88-20.78-50.88-58.94s17.17-57.24,51.31-57.45c35.62,0,52.37,21.84,50.25,65.72H704.58c1.06,17.17,8.48,25.86,22.26,25.86,6.57,0,12.72-2.76,18.23-8.06a12.35,12.35,0,0,1,9.54-4h20.78C769.24,135.9,754,149,726.41,149ZM705,78.23h42.19c-1.7-14.84-8.69-22.47-20.78-22.47S707.12,63.39,705,78.23Z"/><path class="b" d="M889.44,16.54V97.95c0,33.71-17.6,50.46-52.58,50.25-34.77-.64-52.15-19.5-52.15-56.82,0-38.16,14.84-57.67,44.73-58.73,14,0,24.8,5.72,32,17.38V2.33h14A14.3,14.3,0,0,1,889.44,16.54ZM813.76,90.1c-.21,22.68,7.42,34.13,23.53,34.13s24.17-11.45,24.17-34.13c-.64-21.62-8.48-32.22-23.75-32.22S814.6,68.48,813.76,90.1Z"/><path class="b" d="M948,149C914,148,897.07,128.27,897.07,90.1s17.17-57.24,51.31-57.45c35.62,0,52.37,21.84,50.25,65.72H926.11c1.06,17.17,8.48,25.86,22.26,25.86,6.57,0,12.72-2.76,18.23-8.06a12.35,12.35,0,0,1,9.54-4h20.78C990.78,135.9,975.51,149,948,149ZM926.54,78.23h42.19C967,63.39,960,55.76,948,55.76S928.66,63.39,926.54,78.23Z"/><path class="b" d="M1006.46,88.62c.85-36.25,20.14-54.27,57.67-54.27h4V63.6h-9.54c-15.69,0-23.53,8.27-23.53,24.59v58.3h-28.62Z"/><path class="b" d="M11.93,203.68v29.88H0V206.07c0-13.35,6.72-20,20.07-20,6,0,10.61,1.33,14,4,3.36-2.56,8-3.8,14-3.8,13.35,0,20,6.63,19.89,20v27.49h-6.1c-3.89-.27-5.83-2.12-5.83-5.83v-24c-.27-4.86-2.92-7.25-8.13-7.25s-7.87,2.39-8,7.25v29.7H28V203.68c-.27-4.86-2.92-7.25-8.13-7.25S12,198.82,11.93,203.68Z"/><path class="b" d="M111.82,214.91c0,8-2,13.35-6.19,15.91a27.22,27.22,0,0,1-13.79,3.62,23.59,23.59,0,0,1-13.26-4c-4.07-2.56-6.1-7.69-6.1-15.56V186.8H84.24v30.5c0,5.22,2.65,7.78,8,7.78s8-2.56,8-7.78V192.63c-.09-3.89,1.77-5.83,5.66-5.83h6Z"/><path class="b" d="M126.5,179.2v54.36H114.74V173.45h6.1A5.77,5.77,0,0,1,126.5,179.2Z"/><path class="b" d="M143.91,195.2h-1.24v25.9c0,1.95,1.15,3,3.45,3h3.62V233a64.56,64.56,0,0,1-12.38-.09c-4.42-.44-6.54-3.18-6.45-8.4V173.45H137a5.93,5.93,0,0,1,5.66,5.92v7.42h7.07v2.56A5.72,5.72,0,0,1,143.91,195.2Z"/><path class="b" d="M160.35,173.45c3.89,0,5.75,1.95,5.66,5.75v3.45H154.25v-9.19Zm0,13.35c3.8,0,5.66,1.86,5.66,5.66v41.1H154.25V186.8Z"/><path class="b" d="M215.51,234.62c-14.14,0-21.39-8.13-21.75-24.22,0-16,7.16-24,21.57-24.31,11.31,0,18,5,20.07,15.2H222.58a7.66,7.66,0,0,0-7.6-4.86c-6.19,0-9.28,4.69-9.28,14s3.27,14,9.81,13.88a9.17,9.17,0,0,0,7.07-3.36,5.42,5.42,0,0,1,4-1.68h8.84C233.28,228.79,226.39,234.89,215.51,234.62Z"/><path class="b" d="M261.13,196.61c-7,0-10,5.83-10,13v24H239.38V173.45h5.92c3.89,0,5.83,2,5.83,5.92v14c6-6.89,13.35-8.84,22.1-5.75q9.81,3.58,9.28,18.83v27.14H270.85v-24C270.85,201.74,267.84,196.61,261.13,196.61Z"/><path class="b" d="M298.43,199H286.67c1.41-8.66,7.51-12.91,18.3-12.91,12.91,0,19.45,4.24,19.71,12.91v15.91c0,12.91-7.78,18.65-20.42,19.54-11.23.88-19-4.33-19-14.67.27-11.23,8.4-14.23,20.24-15.38,5-.62,7.6-2.12,7.6-4.68-.27-2.65-2.74-4-7.6-4C301.35,195.73,299.05,196.79,298.43,199Zm14.85,15.38V210a50.88,50.88,0,0,1-9.37,2.83c-4.68.88-7.07,3.09-7.07,6.54.27,3.71,2.21,5.48,5.92,5.48C309.3,224.9,313.28,221,313.28,214.38Z"/><path class="b" d="M362,233.56c-3.89-.27-5.83-2.12-5.83-5.83v-24c-.27-4.86-2.92-7.25-8.13-7.25s-7.87,2.39-8,7.25v29.88H328.13V206.07c0-13.35,6.72-20,20.07-20s19.89,6.63,19.8,20v27.49Z"/><path class="b" d="M404.95,233.56c-3.89-.27-5.83-2.12-5.83-5.83v-24c-.27-4.86-2.92-7.25-8.13-7.25s-7.87,2.39-8,7.25v29.88H371.09V206.07c0-13.35,6.72-20,20.07-20s19.89,6.63,19.8,20v27.49Z"/><path class="b" d="M434.92,234.62C420.77,234.18,413.7,226,413.7,210s7.16-23.87,21.39-24c14.85,0,21.83,9.1,20.95,27.4H425.81c.44,7.16,3.54,10.78,9.28,10.78a10.86,10.86,0,0,0,7.6-3.36,5.15,5.15,0,0,1,4-1.68h8.66C452.77,229.14,446.41,234.62,434.92,234.62ZM426,205.1h17.59c-.71-6.19-3.62-9.37-8.66-9.37S426.87,198.91,426,205.1Z"/><path class="b" d="M471.07,179.2v54.36H459.32V173.45h6.1A5.77,5.77,0,0,1,471.07,179.2Z"/><path class="b" d="M495.91,225.07c5,0,7.43-1.42,7.43-4.42,0-2.39-4.07-4.33-12.11-5.75-10.34-1.86-15.65-6.45-15.73-13.79,0-10.08,8-14.85,18.65-15q9,0,14.32,4a14.86,14.86,0,0,1,5.57,11.4h-7.43c-2.74-.09-4.51-1.06-5.22-2.92-.8-2-3.18-3.18-7.07-3.18-4.6,0-6.9,1.24-6.9,3.62s3,4.24,9.1,5.39c8,1.59,13.17,3.62,15.73,6a11.61,11.61,0,0,1,3.27,8.31c0,11.49-9,15.73-21.39,15.73-6.54,0-11.49-1.41-14.67-4.15-3.54-2.65-5.3-6.72-5.3-12.11h12C486.45,223.31,490.17,225.07,495.91,225.07Z"/><path class="b" d="M678.1,210.4c0,16.09-7.16,24.22-21.3,24.22s-21.21-8.13-21.21-24.22c0-16.26,7.07-24.31,21.21-24.31S678.1,194.14,678.1,210.4Zm-30.58,0c.09,9.1,3.18,13.7,9.19,13.7s9-4.77,9.1-14.05c0-9.1-3-13.61-9-13.61C650.61,196.43,647.51,201.12,647.51,210.4Z"/><path class="b" d="M715.4,233.56c-3.89-.27-5.83-2.12-5.83-5.83v-24c-.26-4.86-2.92-7.25-8.13-7.25s-7.87,2.39-8,7.25v29.88H681.55V206.07c0-13.35,6.72-20,20.07-20s19.89,6.63,19.8,20v27.49Z"/><path class="b" d="M745.37,234.62c-14.14-.44-21.21-8.66-21.21-24.57s7.16-23.87,21.39-24c14.85,0,21.83,9.1,20.95,27.4H736.26c.44,7.16,3.54,10.78,9.28,10.78a10.86,10.86,0,0,0,7.6-3.36,5.15,5.15,0,0,1,4-1.68h8.66C763.22,229.14,756.86,234.62,745.37,234.62Zm-8.93-29.52H754c-.71-6.19-3.62-9.37-8.66-9.37S737.32,198.91,736.44,205.1Z"/><path class="b" d="M813.88,225.07c5,0,7.42-1.42,7.42-4.42,0-2.39-4.07-4.33-12.11-5.75-10.34-1.86-15.65-6.45-15.73-13.79,0-10.08,8-14.85,18.65-15q9,0,14.32,4a14.86,14.86,0,0,1,5.57,11.4h-7.42c-2.74-.09-4.51-1.06-5.22-2.92-.8-2-3.18-3.18-7.07-3.18-4.6,0-6.89,1.24-6.89,3.62s3,4.24,9.1,5.39c8,1.59,13.17,3.62,15.73,6a11.62,11.62,0,0,1,3.27,8.31c0,11.49-9,15.73-21.39,15.73-6.54,0-11.49-1.41-14.67-4.15-3.54-2.65-5.3-6.72-5.3-12.11h12C804.42,223.31,808.13,225.07,813.88,225.07Z"/><path class="b" d="M878.58,210.4c0,16.09-7.16,24.22-21.3,24.22s-21.21-8.13-21.21-24.22c0-16.26,7.07-24.31,21.21-24.31S878.58,194.14,878.58,210.4Zm-30.58,0c.09,9.1,3.18,13.7,9.19,13.7s9-4.77,9.1-14.05c0-9.1-3-13.61-9-13.61C851.09,196.43,848,201.12,848,210.4Z"/><path class="b" d="M893.79,179.2v54.36H882V173.45h6.1A5.77,5.77,0,0,1,893.79,179.2Z"/><path class="b" d="M937.54,214.91c0,8-2,13.35-6.19,15.91a27.22,27.22,0,0,1-13.79,3.62,23.59,23.59,0,0,1-13.26-4c-4.07-2.56-6.1-7.69-6.1-15.56V186.8H910v30.5c0,5.22,2.65,7.78,8,7.78s8-2.56,8-7.78V192.63c-.09-3.89,1.77-5.83,5.66-5.83h6Z"/><path class="b" d="M953.46,195.2h-1.24v25.9c0,1.95,1.15,3,3.45,3h3.62V233a64.56,64.56,0,0,1-12.37-.09c-4.42-.44-6.54-3.18-6.45-8.4V173.45h6.1a5.93,5.93,0,0,1,5.66,5.92v7.42h7.07v2.56A5.72,5.72,0,0,1,953.46,195.2Z"/><path class="b" d="M969.9,173.45c3.89,0,5.75,1.95,5.66,5.75v3.45H963.8v-9.19Zm0,13.35c3.8,0,5.66,1.86,5.66,5.66v41.1H963.8V186.8Z"/><path class="b" d="M1022.14,210.4c0,16.09-7.16,24.22-21.3,24.22s-21.21-8.13-21.21-24.22c0-16.26,7.07-24.31,21.21-24.31S1022.14,194.14,1022.14,210.4Zm-30.58,0c.09,9.1,3.18,13.7,9.19,13.7s9-4.77,9.1-14.05c0-9.1-3-13.61-9-13.61C994.65,196.43,991.56,201.12,991.56,210.4Z"/><path class="b" d="M1059.44,233.56c-3.89-.27-5.83-2.12-5.83-5.83v-24c-.26-4.86-2.92-7.25-8.13-7.25s-7.87,2.39-8,7.25v29.88h-11.93V206.07c0-13.35,6.72-20,20.07-20s19.89,6.63,19.8,20v27.49Z"/><path class="a" d="M556.61,209.14a21,21,0,1,1,21,20.8A20.75,20.75,0,0,1,556.61,209.14Z"/></svg>